<mxfile host="65bd71144e">
    <diagram id="dYYa6uGy4qMKMOnXjluz" name="Page-1">
        <mxGraphModel dx="576" dy="1580" grid="0" gridSize="12" guides="1" tooltips="1" connect="1" arrows="1" fold="1" page="1" pageScale="1" pageWidth="850" pageHeight="1100" background="#ffffff" math="0" shadow="0">
            <root>
                <mxCell id="0"/>
                <mxCell id="1" parent="0"/>
                <mxCell id="12" value="&lt;h3&gt;Start&lt;/h3&gt;" style="ellipse;shape=doubleEllipse;html=1;labelBackgroundColor=none;fontFamily=Courier New;rounded=1;fillStyle=auto;strokeColor=#3A5431;labelBorderColor=none;fontColor=#ffffff;fillColor=#6d8764;" vertex="1" parent="1">
                    <mxGeometry x="240" y="-384" width="100" height="60" as="geometry"/>
                </mxCell>
                <mxCell id="13" value="" style="shape=singleArrow;direction=south;whiteSpace=wrap;html=1;labelBackgroundColor=#f8f7f7;strokeColor=#666666;fontFamily=Courier New;fillColor=#f5f5f5;rounded=1;fontColor=#333333;" vertex="1" parent="1">
                    <mxGeometry x="275" y="-324" width="30" height="48" as="geometry"/>
                </mxCell>
                <mxCell id="14" value="&lt;h4&gt;Ask the users to input two integer values. The number of boys and girls in a class.&amp;nbsp;&lt;br&gt;Variables: males, females&lt;/h4&gt;" style="shape=ext;double=1;rounded=1;whiteSpace=wrap;html=1;labelBackgroundColor=none;strokeColor=#3A5431;fontFamily=Courier New;fillColor=#6d8764;fontColor=#ffffff;align=center;verticalAlign=middle;labelBorderColor=none;" vertex="1" parent="1">
                    <mxGeometry x="111" y="-276" width="358" height="104" as="geometry"/>
                </mxCell>
                <mxCell id="15" value="" style="shape=singleArrow;direction=south;whiteSpace=wrap;html=1;labelBackgroundColor=#f8f7f7;fontFamily=Courier New;fillColor=#eeeeee;rounded=1;strokeColor=#36393d;" vertex="1" parent="1">
                    <mxGeometry x="275" y="-172" width="30" height="48" as="geometry"/>
                </mxCell>
                <mxCell id="17" value="&lt;b&gt;Calculate the total number of students.&lt;br&gt;total = males + females&lt;/b&gt;" style="shape=ext;double=1;rounded=1;labelBackgroundColor=none;strokeColor=#3A5431;fontFamily=Courier New;fillColor=#6d8764;fontColor=#ffffff;whiteSpace=wrap;fontStyle=0;html=1;" vertex="1" parent="1">
                    <mxGeometry x="111" y="-124" width="358" height="104" as="geometry"/>
                </mxCell>
                <mxCell id="18" value="" style="shape=singleArrow;direction=south;whiteSpace=wrap;html=1;labelBackgroundColor=#f8f7f7;strokeColor=#36393d;fontFamily=Courier New;fillColor=#eeeeee;rounded=1;" vertex="1" parent="1">
                    <mxGeometry x="275" y="-20" width="30" height="48" as="geometry"/>
                </mxCell>
                <mxCell id="20" value="Calculate the percentage of males and females.&amp;nbsp;&lt;br&gt;m_perc = males / total * 100&lt;br&gt;f_perc = females / total * 100" style="shape=ext;double=1;rounded=1;whiteSpace=wrap;html=1;labelBackgroundColor=none;strokeColor=#3A5431;fontFamily=Courier New;fillColor=#6d8764;fontColor=#ffffff;fontStyle=1" vertex="1" parent="1">
                    <mxGeometry x="111" y="28" width="358" height="104" as="geometry"/>
                </mxCell>
                <mxCell id="21" value="" style="shape=singleArrow;direction=south;whiteSpace=wrap;html=1;labelBackgroundColor=#f8f7f7;strokeColor=#36393d;fontFamily=Courier New;fillColor=#eeeeee;rounded=1;" vertex="1" parent="1">
                    <mxGeometry x="275" y="132" width="30" height="48" as="geometry"/>
                </mxCell>
                <mxCell id="22" value="&lt;b&gt;Print the number of males and females.&lt;br&gt;Print the total number of students.&amp;nbsp;&lt;br&gt;Print the percentage of males and females.&amp;nbsp;&lt;br&gt;&lt;/b&gt;" style="shape=ext;double=1;rounded=1;whiteSpace=wrap;html=1;labelBackgroundColor=none;strokeColor=#3A5431;fontFamily=Courier New;fillColor=#6d8764;fontColor=#ffffff;" vertex="1" parent="1">
                    <mxGeometry x="111" y="180" width="358" height="104" as="geometry"/>
                </mxCell>
                <mxCell id="23" value="" style="shape=singleArrow;direction=south;whiteSpace=wrap;html=1;labelBackgroundColor=#f8f7f7;strokeColor=#36393d;fontFamily=Courier New;fillColor=#eeeeee;rounded=1;" vertex="1" parent="1">
                    <mxGeometry x="275" y="284" width="30" height="48" as="geometry"/>
                </mxCell>
                <mxCell id="24" value="" style="ellipse;shape=doubleEllipse;whiteSpace=wrap;html=1;labelBackgroundColor=none;strokeColor=#3A5431;fontFamily=Courier New;fillColor=#6d8764;rounded=1;fontColor=#ffffff;fontStyle=1" vertex="1" parent="1">
                    <mxGeometry x="240" y="332" width="100" height="60" as="geometry"/>
                </mxCell>
            </root>
        </mxGraphModel>
    </diagram>
</mxfile>